<?xml version="1.0" encoding="iso-8859-1"?>
<!-- Uploaded to: SVG Repo, www.svgrepo.com, Generator: SVG Repo Mixer Tools -->
<svg fill="#000000" height="800px" width="800px" version="1.1" id="Capa_1" xmlns="http://www.w3.org/2000/svg" xmlns:xlink="http://www.w3.org/1999/xlink" 
	 viewBox="0 0 31.004 31.004" xml:space="preserve">
<g>
	<path d="M22.397,31.004V26.49c0-0.936,0.76-1.697,1.697-1.697l3.5-0.1L22.397,31.004z"/>
	<path d="M25.895,0H5.106C4.167,0,3.409,0.762,3.409,1.697v27.611c0,0.938,0.758,1.695,1.697,1.695h15.602v-6.02
		c0-0.936,0.762-1.695,1.699-1.695h5.188V1.697C27.595,0.762,26.835,0,25.895,0z M10.8,2.135l0.057-0.029
		c2.285,0,4.138,1.85,4.138,4.137c0,0.008-0.002,0.018-0.002,0.025H10.8V2.135z M10.089,2.996v4.135h4.195
		c0,2.285-1.854,4.137-4.139,4.137c-2.283,0-4.137-1.852-4.137-4.137C6.009,4.865,7.831,3.025,10.089,2.996z M24.604,21.621
		c0,0.266-0.295,0.482-0.658,0.482H6.411c-0.364,0-0.658-0.217-0.658-0.482v-0.809c0-0.266,0.294-0.482,0.658-0.482h17.535
		c0.363,0,0.658,0.217,0.658,0.482V21.621z M24.755,18.117c0,0.27-0.292,0.482-0.656,0.482H6.563c-0.363,0-0.658-0.213-0.658-0.482
		V17.31c0-0.268,0.295-0.484,0.658-0.484h17.535c0.364,0,0.656,0.217,0.656,0.484v0.807H24.755z M24.755,14.803
		c0,0.268-0.292,0.486-0.656,0.486H6.563c-0.363,0-0.658-0.219-0.658-0.486v-0.805c0-0.268,0.295-0.484,0.658-0.484h17.535
		c0.364,0,0.656,0.217,0.656,0.484v0.805H24.755z M24.409,4.793c0,0.268-0.131,0.484-0.293,0.484h-7.791
		c-0.161,0-0.292-0.217-0.292-0.484V3.984c0-0.266,0.131-0.484,0.292-0.484h7.791c0.162,0,0.293,0.219,0.293,0.484V4.793z
		 M24.473,10.785c0,0.266-0.13,0.482-0.293,0.482h-7.791c-0.163,0-0.292-0.217-0.292-0.482V9.977c0-0.266,0.129-0.482,0.292-0.482
		h7.791c0.163,0,0.293,0.217,0.293,0.482V10.785z M24.44,7.801c0,0.268-0.129,0.482-0.293,0.482h-7.791
		c-0.161,0-0.291-0.215-0.291-0.482V6.992c0-0.266,0.13-0.482,0.291-0.482h7.791c0.164,0,0.293,0.217,0.293,0.482V7.801z"/>
	<g>
	</g>
	<g>
	</g>
	<g>
	</g>
	<g>
	</g>
	<g>
	</g>
	<g>
	</g>
	<g>
	</g>
	<g>
	</g>
	<g>
	</g>
	<g>
	</g>
	<g>
	</g>
	<g>
	</g>
	<g>
	</g>
	<g>
	</g>
	<g>
	</g>
</g>
</svg>